<svg xmlns="http://www.w3.org/2000/svg" viewBox="0 0 70.66 60.27"><defs><style>.cls-1{fill:#e74717;}.cls-2{fill:#8db0c6;}</style></defs><g id="Capa_2" data-name="Capa 2"><g id="isotipo"><path class="cls-1" d="M35.3,60.27c2.49-2.45,4.8-4.67,7.05-6.94Q54,41.6,65.54,29.83a16.54,16.54,0,0,0,4.17-17.61A16.7,16.7,0,0,0,56.42.37,17.58,17.58,0,0,0,35.3,17.81q0,20.31,0,40.61Z"/><path class="cls-2" d="M35.47,60.27c-2.5-2.44-4.81-4.65-7.06-6.92Q16.77,41.65,5.16,29.91A16.52,16.52,0,0,1,.94,12.31,16.7,16.7,0,0,1,14.2.42,17.57,17.57,0,0,1,35.36,17.81q0,20.31.11,40.61Z"/></g></g></svg>