<svg xmlns="http://www.w3.org/2000/svg" viewBox="0 0 97.41 53.8"><defs><style>.cls-1{fill:#8db0c6;}.cls-2{fill:#eb4511;}</style></defs><g id="Capa_2" data-name="Capa 2"><g id="isotipo"><path class="cls-1" d="M48.74,53.7c2-2,3.77-3.88,5.6-5.71q9.45-9.41,18.94-18.79A13.35,13.35,0,0,1,87.5,25.8a13.46,13.46,0,0,1,9.61,10.71,14.2,14.2,0,0,1-14,17.1c-10.94,0-21.88.06-32.82.09Z"/><path class="cls-2" d="M48.73,45.6c-4.3-4.36-8.67-8.54-12.94-12.93C23.87,22.31,30.87,2,46.35.21,62.22-2.26,74.05,18,63.53,30.41,58.87,35.75,53.72,40.44,48.73,45.6Z"/><path class="cls-1" d="M48.74,53.71c-2-2-3.78-3.87-5.62-5.68q-9.51-9.36-19-18.69A13.34,13.34,0,0,0,9.84,26,13.48,13.48,0,0,0,.29,36.77a14.2,14.2,0,0,0,14.14,17l32.82-.09Z"/></g></g></svg>