<svg xmlns="http://www.w3.org/2000/svg" viewBox="0 0 70.63 72.63"><defs><style>.cls-1{fill:#e74717;}.cls-2{fill:#8db0c6;}</style></defs><g id="Capa_2" data-name="Capa 2"><g id="isotipo"><path class="cls-1" d="M35.25,0c-2.48,2.46-4.78,4.68-7,7Q16.63,18.72,5.09,30.52A16.53,16.53,0,0,0,1,48.14,16.68,16.68,0,0,0,14.29,60a17.58,17.58,0,0,0,21.07-17.5q-.07-20.31-.1-40.61C35.25,1.33,35.25.8,35.25,0Z"/><path class="cls-2" d="M35.16.05C37.66,2.49,40,4.7,42.22,7q11.66,11.7,23.26,23.44A16.54,16.54,0,0,1,69.69,48,16.7,16.7,0,0,1,56.43,59.9,17.57,17.57,0,0,1,35.27,42.51q0-20.31-.11-40.61Z"/><path class="cls-1" d="M35.27,42.33l-.35.81Q31.09,52,27.25,60.83a8.36,8.36,0,0,0,5.91,11.6,9.74,9.74,0,0,0,2.12.2V42.33Z"/><path class="cls-2" d="M41.19,69.77a7.86,7.86,0,0,0,1.51-8.46Q39.88,54,37,46.69c-.55-1.41-1.13-2.81-1.75-4.34V72.63A7.88,7.88,0,0,0,41.19,69.77Z"/></g></g></svg>