<svg xmlns="http://www.w3.org/2000/svg" viewBox="0 0 133.07 109.24"><defs><style>.cls-1{fill:#8eb1c7;}.cls-2{fill:#eb4511;}</style></defs><g id="Capa_2" data-name="Capa 2"><g id="isotipo"><path class="cls-1" d="M66.59,73.36c2.7-2.76,5.14-5.31,7.64-7.8Q87.15,52.71,100.1,39.89c5.52-5.44,12.15-7,19.43-4.65a18.43,18.43,0,0,1,13.13,14.63,19.41,19.41,0,0,1-19.2,23.36q-22.42,0-44.83.12Z"/><path class="cls-2" d="M66.56,62.29c-5.86-6-11.84-11.67-17.67-17.66C32.61,30.48,42.17,2.69,63.32.28,85-3.09,101.16,24.59,86.79,41.54,80.42,48.84,73.38,55.24,66.56,62.29Z"/><path class="cls-1" d="M66.59,73.37c-2.72-2.75-5.18-5.28-7.69-7.76q-13-12.78-26-25.53c-5.55-5.41-12.18-6.89-19.45-4.55a18.42,18.42,0,0,0-13,14.7A19.41,19.41,0,0,0,19.71,73.49q22.42-.09,44.83-.12Z"/><path class="cls-2" d="M66.75,109.24a21.91,21.91,0,0,0,21-27.85l-42.21.11a21.91,21.91,0,0,0,21.18,27.74Z"/></g></g></svg>